<svg xmlns="http://www.w3.org/2000/svg" width="137.491" height="364.143" viewBox="0 0 137.491 364.143">
  <g id="Cube003_MOB" data-name="Cube003 MOB" transform="translate(136.741 0.75) rotate(90)">
    <path id="Path_2096" data-name="Path 2096" d="M0,0H45.33V45.33H0Z" transform="translate(0 45.33)" fill="#ecece2" stroke="#d9d9cf" stroke-linecap="round" stroke-linejoin="round" stroke-width="1.5" fill-rule="evenodd"/>
    <path id="Path_2097" data-name="Path 2097" d="M0,0H45.33V45.33H0Z" transform="translate(45.33 45.33)" fill="#ecece2" stroke="#d9d9cf" stroke-linecap="round" stroke-linejoin="round" stroke-width="1.5" fill-rule="evenodd"/>
    <path id="Path_2098" data-name="Path 2098" d="M0,0H45.33V45.33H0Z" transform="translate(90.661 45.33)" fill="#ecece2" stroke="#d9d9cf" stroke-linecap="round" stroke-linejoin="round" stroke-width="1.5" fill-rule="evenodd"/>
    <path id="Path_2099" data-name="Path 2099" d="M0,0H45.33V45.33H0Z" transform="translate(135.991 45.33)" fill="#ecece2" stroke="#d9d9cf" stroke-linecap="round" stroke-linejoin="round" stroke-width="1.5" fill-rule="evenodd"/>
    <path id="Path_2100" data-name="Path 2100" d="M0,0H45.33V45.33H0Z" transform="translate(181.537 45.33)" fill="#ecece2" stroke="#d9d9cf" stroke-linecap="round" stroke-linejoin="round" stroke-width="1.5" fill-rule="evenodd"/>
    <path id="Path_2101" data-name="Path 2101" d="M0,0H45.33V45.33H0Z" transform="translate(226.652 45.33)" fill="#ecece2" stroke="#d9d9cf" stroke-linecap="round" stroke-linejoin="round" stroke-width="1.5" fill-rule="evenodd"/>
    <path id="Path_2102" data-name="Path 2102" d="M0,0H45.33V45.33H0Z" transform="translate(271.982 45.33)" fill="#ecece2" stroke="#d9d9cf" stroke-linecap="round" stroke-linejoin="round" stroke-width="1.5" fill-rule="evenodd"/>
    <path id="Path_2103" data-name="Path 2103" d="M0,0H45.33V45.33H0Z" transform="translate(317.313 45.33)" fill="#ecece2" stroke="#d9d9cf" stroke-linecap="round" stroke-linejoin="round" stroke-width="1.5" fill-rule="evenodd"/>
    <path id="Path_2105" data-name="Path 2105" d="M0,0H45.33V45.33H0Z" transform="translate(45.331 0)" fill="#ecece2" stroke="#d9d9cf" stroke-linecap="round" stroke-linejoin="round" stroke-width="1.5" fill-rule="evenodd"/>
    <path id="Path_2107" data-name="Path 2107" d="M0,0H45.33V45.33H0Z" transform="translate(226.652 90.661)" fill="#ecece2" stroke="#d9d9cf" stroke-linecap="round" stroke-linejoin="round" stroke-width="1.5" fill-rule="evenodd"/>
  </g>
</svg>
