<svg width="1708" height="313" viewBox="0 0 1708 313" fill="none" xmlns="http://www.w3.org/2000/svg">
<path fill-rule="evenodd" clip-rule="evenodd" d="M1242.39 311.16H1087.19V155.96H1242.39L1242.39 311.16Z" fill="#ECECE2" stroke="#D9D9CF" stroke-width="1.5" stroke-linecap="round" stroke-linejoin="round"/>
<path fill-rule="evenodd" clip-rule="evenodd" d="M1087.18 311.16H931.98V155.96H1087.18L1087.18 311.16Z" fill="#ECECE2" stroke="#D9D9CF" stroke-width="1.5" stroke-linecap="round" stroke-linejoin="round"/>
<path fill-rule="evenodd" clip-rule="evenodd" d="M931.98 311.16H776.775V155.96H931.975L931.98 311.16Z" fill="#ECECE2" stroke="#D9D9CF" stroke-width="1.5" stroke-linecap="round" stroke-linejoin="round"/>
<path fill-rule="evenodd" clip-rule="evenodd" d="M776.775 311.16H621.57V155.96H776.775V311.16Z" fill="#ECECE2" stroke="#D9D9CF" stroke-width="1.5" stroke-linecap="round" stroke-linejoin="round"/>
<path fill-rule="evenodd" clip-rule="evenodd" d="M620.831 311.16H465.626V155.96H620.826L620.831 311.16Z" fill="#ECECE2" stroke="#D9D9CF" stroke-width="1.5" stroke-linecap="round" stroke-linejoin="round"/>
<path fill-rule="evenodd" clip-rule="evenodd" d="M466.365 311.16H311.165V155.96H466.365V311.16Z" fill="#ECECE2" stroke="#D9D9CF" stroke-width="1.5" stroke-linecap="round" stroke-linejoin="round"/>
<path fill-rule="evenodd" clip-rule="evenodd" d="M311.16 311.16H155.96V155.96H311.16V311.16Z" fill="#ECECE2" stroke="#D9D9CF" stroke-width="1.5" stroke-linecap="round" stroke-linejoin="round"/>
<path fill-rule="evenodd" clip-rule="evenodd" d="M155.955 311.16H0.75V155.96H155.955V311.16Z" fill="#ECECE2" stroke="#D9D9CF" stroke-width="1.5" stroke-linecap="round" stroke-linejoin="round"/>
<path fill-rule="evenodd" clip-rule="evenodd" d="M466.365 155.955H311.165V0.755005H466.365V155.955Z" fill="#ECECE2" stroke="#D9D9CF" stroke-width="1.5" stroke-linecap="round" stroke-linejoin="round"/>
<path fill-rule="evenodd" clip-rule="evenodd" d="M1396.86 311.16H1241.65V155.96H1396.85L1396.86 311.16Z" fill="#ECECE2" stroke="#D9D9CF" stroke-width="1.5" stroke-linecap="round" stroke-linejoin="round"/>
<path fill-rule="evenodd" clip-rule="evenodd" d="M1552.21 312.2H1397V157H1552.2L1552.21 312.2Z" fill="#ECECE2" stroke="#D9D9CF" stroke-width="1.5" stroke-linecap="round" stroke-linejoin="round"/>
<path fill-rule="evenodd" clip-rule="evenodd" d="M1707.21 312.2H1552V157H1707.2L1707.21 312.2Z" fill="#ECECE2" stroke="#D9D9CF" stroke-width="1.5" stroke-linecap="round" stroke-linejoin="round"/>
</svg>
