<svg xmlns="http://www.w3.org/2000/svg" width="92.161" height="318.813" viewBox="0 0 92.161 318.813">
  <g id="Cube001_MOB" data-name="Cube001 MOB" transform="translate(0.75 318.063) rotate(-90)">
    <path id="Path_2096" data-name="Path 2096" d="M0,0H45.33V45.331H0Z" transform="translate(0 0)" fill="#ecece2" stroke="#d9d9cf" stroke-linecap="round" stroke-linejoin="round" stroke-width="1.5" fill-rule="evenodd"/>
    <path id="Path_2097" data-name="Path 2097" d="M0,0H45.33V45.331H0Z" transform="translate(45.33 0)" fill="#ecece2" stroke="#d9d9cf" stroke-linecap="round" stroke-linejoin="round" stroke-width="1.5" fill-rule="evenodd"/>
    <path id="Path_2098" data-name="Path 2098" d="M0,0H45.33V45.331H0Z" transform="translate(90.661 0)" fill="#ecece2" stroke="#d9d9cf" stroke-linecap="round" stroke-linejoin="round" stroke-width="1.5" fill-rule="evenodd"/>
    <path id="Path_2099" data-name="Path 2099" d="M0,0H45.33V45.331H0Z" transform="translate(135.991 0)" fill="#ecece2" stroke="#d9d9cf" stroke-linecap="round" stroke-linejoin="round" stroke-width="1.5" fill-rule="evenodd"/>
    <path id="Path_2100" data-name="Path 2100" d="M0,0H45.33V45.331H0Z" transform="translate(181.537 0)" fill="#ecece2" stroke="#d9d9cf" stroke-linecap="round" stroke-linejoin="round" stroke-width="1.5" fill-rule="evenodd"/>
    <path id="Path_2101" data-name="Path 2101" d="M0,0H45.33V45.331H0Z" transform="translate(226.652 0)" fill="#ecece2" stroke="#d9d9cf" stroke-linecap="round" stroke-linejoin="round" stroke-width="1.5" fill-rule="evenodd"/>
    <path id="Path_2102" data-name="Path 2102" d="M0,0H45.33V45.331H0Z" transform="translate(271.982 0)" fill="#ecece2" stroke="#d9d9cf" stroke-linecap="round" stroke-linejoin="round" stroke-width="1.5" fill-rule="evenodd"/>
    <path id="Path_2107" data-name="Path 2107" d="M0,0H45.33V45.331H0Z" transform="translate(226.652 45.331)" fill="#ecece2" stroke="#d9d9cf" stroke-linecap="round" stroke-linejoin="round" stroke-width="1.5" fill-rule="evenodd"/>
  </g>
</svg>
