<svg xmlns="http://www.w3.org/2000/svg" width="1397.605" height="311.91" viewBox="0 0 1397.605 311.91">
  <g id="Cube007" transform="translate(0.75 0.75)">
    <path id="Path_2096" data-name="Path 2096" d="M155.955-55.545H.75v-155.2h155.2Z" transform="translate(1085.685 365.955)" fill="#ecece2" stroke="#d9d9cf" stroke-linecap="round" stroke-linejoin="round" stroke-width="1.5" fill-rule="evenodd"/>
    <path id="Path_2097" data-name="Path 2097" d="M365.955-55.545H210.75v-155.2h155.2Z" transform="translate(720.48 365.955)" fill="#ecece2" stroke="#d9d9cf" stroke-linecap="round" stroke-linejoin="round" stroke-width="1.5" fill-rule="evenodd"/>
    <path id="Path_2098" data-name="Path 2098" d="M575.955-55.545H420.75v-155.2h155.2Z" transform="translate(355.275 365.955)" fill="#ecece2" stroke="#d9d9cf" stroke-linecap="round" stroke-linejoin="round" stroke-width="1.5" fill-rule="evenodd"/>
    <path id="Path_2099" data-name="Path 2099" d="M785.955-55.545H630.75v-155.2H785.955Z" transform="translate(-9.93 365.955)" fill="#ecece2" stroke="#d9d9cf" stroke-linecap="round" stroke-linejoin="round" stroke-width="1.5" fill-rule="evenodd"/>
    <path id="Path_2100" data-name="Path 2100" d="M996.955-55.545H841.75v-155.2h155.2Z" transform="translate(-376.874 365.955)" fill="#ecece2" stroke="#d9d9cf" stroke-linecap="round" stroke-linejoin="round" stroke-width="1.5" fill-rule="evenodd"/>
    <path id="Path_2101" data-name="Path 2101" d="M1205.955-55.545h-155.2v-155.2h155.2Z" transform="translate(-740.34 365.955)" fill="#ecece2" stroke="#d9d9cf" stroke-linecap="round" stroke-linejoin="round" stroke-width="1.5" fill-rule="evenodd"/>
    <path id="Path_2102" data-name="Path 2102" d="M1415.955-55.545h-155.2v-155.2h155.2Z" transform="translate(-1105.545 365.955)" fill="#ecece2" stroke="#d9d9cf" stroke-linecap="round" stroke-linejoin="round" stroke-width="1.5" fill-rule="evenodd"/>
    <path id="Path_2103" data-name="Path 2103" d="M1625.955-55.545H1470.75v-155.2h155.205Z" transform="translate(-1470.75 365.955)" fill="#ecece2" stroke="#d9d9cf" stroke-linecap="round" stroke-linejoin="round" stroke-width="1.5" fill-rule="evenodd"/>
    <path id="Path_2107" data-name="Path 2107" d="M1205.955-55.545h-155.2v-155.2h155.2Z" transform="translate(-740.34 210.75)" fill="#ecece2" stroke="#d9d9cf" stroke-linecap="round" stroke-linejoin="round" stroke-width="1.5" fill-rule="evenodd"/>
    <path id="Path_2108" data-name="Path 2108" d="M155.955-55.545H.75v-155.2h155.2Z" transform="translate(1240.151 365.955)" fill="#ecece2" stroke="#d9d9cf" stroke-linecap="round" stroke-linejoin="round" stroke-width="1.5" fill-rule="evenodd"/>
  </g>
</svg>
