<svg xmlns="http://www.w3.org/2000/svg" width="1397.604" height="311.91" viewBox="0 0 1397.604 311.91">
  <g id="Cube007" transform="translate(0.75 0.75)">
    <path id="Path_2096" data-name="Path 2096" d="M.75-55.545h155.2v-155.2H.75Z" transform="translate(153.716 365.955)" fill="#ecece2" stroke="#d9d9cf" stroke-linecap="round" stroke-linejoin="round" stroke-width="1.5" fill-rule="evenodd"/>
    <path id="Path_2097" data-name="Path 2097" d="M210.75-55.545h155.2v-155.2H210.75Z" transform="translate(98.921 365.955)" fill="#ecece2" stroke="#d9d9cf" stroke-linecap="round" stroke-linejoin="round" stroke-width="1.5" fill-rule="evenodd"/>
    <path id="Path_2098" data-name="Path 2098" d="M420.75-55.545h155.2v-155.2H420.75Z" transform="translate(44.125 365.955)" fill="#ecece2" stroke="#d9d9cf" stroke-linecap="round" stroke-linejoin="round" stroke-width="1.5" fill-rule="evenodd"/>
    <path id="Path_2099" data-name="Path 2099" d="M630.75-55.545h155.2v-155.2H630.75Z" transform="translate(-10.67 365.955)" fill="#ecece2" stroke="#d9d9cf" stroke-linecap="round" stroke-linejoin="round" stroke-width="1.5" fill-rule="evenodd"/>
    <path id="Path_2100" data-name="Path 2100" d="M841.75-55.545h155.2v-155.2H841.75Z" transform="translate(-65.726 365.955)" fill="#ecece2" stroke="#d9d9cf" stroke-linecap="round" stroke-linejoin="round" stroke-width="1.5" fill-rule="evenodd"/>
    <path id="Path_2101" data-name="Path 2101" d="M1050.75-55.545h155.2v-155.2h-155.2Z" transform="translate(-120.26 365.955)" fill="#ecece2" stroke="#d9d9cf" stroke-linecap="round" stroke-linejoin="round" stroke-width="1.5" fill-rule="evenodd"/>
    <path id="Path_2102" data-name="Path 2102" d="M1260.75-55.545h155.2v-155.2h-155.2Z" transform="translate(-175.055 365.955)" fill="#ecece2" stroke="#d9d9cf" stroke-linecap="round" stroke-linejoin="round" stroke-width="1.5" fill-rule="evenodd"/>
    <path id="Path_2103" data-name="Path 2103" d="M1470.75-55.545h155.2v-155.2h-155.2Z" transform="translate(-229.85 365.955)" fill="#ecece2" stroke="#d9d9cf" stroke-linecap="round" stroke-linejoin="round" stroke-width="1.5" fill-rule="evenodd"/>
    <path id="Path_2107" data-name="Path 2107" d="M1050.75-55.545h155.2v-155.2h-155.2Z" transform="translate(-120.26 210.75)" fill="#ecece2" stroke="#d9d9cf" stroke-linecap="round" stroke-linejoin="round" stroke-width="1.5" fill-rule="evenodd"/>
    <path id="Path_2108" data-name="Path 2108" d="M.75-55.545h155.2v-155.2H.75Z" transform="translate(-0.75 365.955)" fill="#ecece2" stroke="#d9d9cf" stroke-linecap="round" stroke-linejoin="round" stroke-width="1.5" fill-rule="evenodd"/>
  </g>
</svg>
