<svg width="1682" height="633" viewBox="0 0 1682 633" fill="none" xmlns="http://www.w3.org/2000/svg">
<path fill-rule="evenodd" clip-rule="evenodd" d="M421.279 1V211H211.279V1L421.279 1Z" fill="#ECECE2" stroke="#D9D9CF" stroke-width="1.5" stroke-linecap="round" stroke-linejoin="round"/>
<path fill-rule="evenodd" clip-rule="evenodd" d="M421.279 211V421H211.279V211H421.279Z" fill="#ECECE2" stroke="#D9D9CF" stroke-width="1.5" stroke-linecap="round" stroke-linejoin="round"/>
<path fill-rule="evenodd" clip-rule="evenodd" d="M631.558 1V211H421.558V1L631.558 1Z" fill="#ECECE2" stroke="#D9D9CF" stroke-width="1.5" stroke-linecap="round" stroke-linejoin="round"/>
<path fill-rule="evenodd" clip-rule="evenodd" d="M631.558 211V421H421.558V211H631.558Z" fill="#ECECE2" stroke="#D9D9CF" stroke-width="1.5" stroke-linecap="round" stroke-linejoin="round"/>
<path fill-rule="evenodd" clip-rule="evenodd" d="M211 212V422H0.999969V212H211Z" fill="#ECECE2" stroke="#D9D9CF" stroke-width="1.5" stroke-linecap="round" stroke-linejoin="round"/>
<path fill-rule="evenodd" clip-rule="evenodd" d="M1 422H211V212H1V422Z" fill="#ECECE2" stroke="#D9D9CF" stroke-width="1.5" stroke-linecap="round" stroke-linejoin="round"/>
<path fill-rule="evenodd" clip-rule="evenodd" d="M211 422H421V212H211V422Z" fill="#ECECE2" stroke="#D9D9CF" stroke-width="1.5" stroke-linecap="round" stroke-linejoin="round"/>
<path fill-rule="evenodd" clip-rule="evenodd" d="M421 422H631V212H421V422Z" fill="#ECECE2" stroke="#D9D9CF" stroke-width="1.5" stroke-linecap="round" stroke-linejoin="round"/>
<path fill-rule="evenodd" clip-rule="evenodd" d="M631 422H841V212H631V422Z" fill="#ECECE2" stroke="#D9D9CF" stroke-width="1.5" stroke-linecap="round" stroke-linejoin="round"/>
<path fill-rule="evenodd" clip-rule="evenodd" d="M842 422H1052V212H842V422Z" fill="#ECECE2" stroke="#D9D9CF" stroke-width="1.5" stroke-linecap="round" stroke-linejoin="round"/>
<path fill-rule="evenodd" clip-rule="evenodd" d="M1051 422H1261V212H1051V422Z" fill="#ECECE2" stroke="#D9D9CF" stroke-width="1.5" stroke-linecap="round" stroke-linejoin="round"/>
<path fill-rule="evenodd" clip-rule="evenodd" d="M1261 422H1471V212H1261V422Z" fill="#ECECE2" stroke="#D9D9CF" stroke-width="1.5" stroke-linecap="round" stroke-linejoin="round"/>
<path fill-rule="evenodd" clip-rule="evenodd" d="M1471 422H1681V212H1471V422Z" fill="#ECECE2" stroke="#D9D9CF" stroke-width="1.5" stroke-linecap="round" stroke-linejoin="round"/>
<path fill-rule="evenodd" clip-rule="evenodd" d="M631 632H841V422H631V632Z" fill="#ECECE2" stroke="#D9D9CF" stroke-width="1.5" stroke-linecap="round" stroke-linejoin="round"/>
<path fill-rule="evenodd" clip-rule="evenodd" d="M1051 212H1261V2H1051V212Z" fill="#ECECE2" stroke="#D9D9CF" stroke-width="1.5" stroke-linecap="round" stroke-linejoin="round"/>
</svg>
