<svg xmlns="http://www.w3.org/2000/svg" width="634.206" height="790.877" viewBox="0 0 634.206 790.877">
  <g id="Group_3046" data-name="Group 3046" transform="translate(-1719.25 -4800.75)">
    <g id="Cube001" transform="translate(1720 5274.523)">
      <path id="Path_2096" data-name="Path 2096" d="M.75-52.573H158.927V-210.75H.75Z" transform="translate(-0.75 210.75)" fill="#ecece2" stroke="#d9d9cf" stroke-linecap="round" stroke-linejoin="round" stroke-width="1.5" fill-rule="evenodd"/>
      <path id="Path_2097" data-name="Path 2097" d="M210.75-52.573H368.927V-210.75H210.75Z" transform="translate(-52.573 210.75)" fill="#ecece2" stroke="#d9d9cf" stroke-linecap="round" stroke-linejoin="round" stroke-width="1.5" fill-rule="evenodd"/>
      <path id="Path_2098" data-name="Path 2098" d="M420.75-52.573H578.927V-210.75H420.75Z" transform="translate(-104.397 210.75)" fill="#ecece2" stroke="#d9d9cf" stroke-linecap="round" stroke-linejoin="round" stroke-width="1.5" fill-rule="evenodd"/>
      <path id="Path_2099" data-name="Path 2099" d="M630.75-52.573H788.927V-210.75H630.75Z" transform="translate(-156.22 210.75)" fill="#ecece2" stroke="#d9d9cf" stroke-linecap="round" stroke-linejoin="round" stroke-width="1.5" fill-rule="evenodd"/>
      <path id="Path_2105" data-name="Path 2105" d="M630.75-52.573H788.927V-210.75H630.75Z" transform="translate(-156.22 368.927)" fill="#ecece2" stroke="#d9d9cf" stroke-linecap="round" stroke-linejoin="round" stroke-width="1.5" fill-rule="evenodd"/>
    </g>
    <g id="Cube002" transform="translate(2035.6 4801.5)">
      <path id="Path_2092" data-name="Path 2092" d="M.75-262.852H158.927V-421.029H.75Z" transform="translate(-0.75 579.416)" fill="#ecece2" stroke="#d9d9cf" stroke-linecap="round" stroke-linejoin="round" stroke-width="1.5" fill-rule="evenodd"/>
      <path id="Path_2093" data-name="Path 2093" d="M210.75-262.852H368.927V-421.029H210.75Z" transform="translate(-52.573 579.416)" fill="#ecece2" stroke="#d9d9cf" stroke-linecap="round" stroke-linejoin="round" stroke-width="1.5" fill-rule="evenodd"/>
      <path id="Path_2094" data-name="Path 2094" d="M.75-52.573H158.927V-210.75H.75Z" transform="translate(-0.75 527.523)" fill="#ecece2" stroke="#d9d9cf" stroke-linecap="round" stroke-linejoin="round" stroke-width="1.5" fill-rule="evenodd"/>
      <path id="Path_2095" data-name="Path 2095" d="M211.75-52.573H369.927V-210.75H211.75Z" transform="translate(-52.82 527.523)" fill="#ecece2" stroke="#d9d9cf" stroke-linecap="round" stroke-linejoin="round" stroke-width="1.5" fill-rule="evenodd"/>
      <path id="Path_2104" data-name="Path 2104" d="M.75-262.852H158.927V-421.029H.75Z" transform="translate(158.18 421.029)" fill="#ecece2" stroke="#d9d9cf" stroke-linecap="round" stroke-linejoin="round" stroke-width="1.5" fill-rule="evenodd"/>
    </g>
  </g>
</svg>
